<svg xmlns="http://www.w3.org/2000/svg" width="500" height="220"><text x="20" y="15">Trip duration distribution</text><rect x="20" y="179.0" width="12" height="1.0" fill="#2c7fb8"/><rect x="35" y="174.7" width="12" height="5.3" fill="#2c7fb8"/><rect x="50" y="174.2" width="12" height="5.8" fill="#2c7fb8"/><rect x="65" y="164.1" width="12" height="15.9" fill="#2c7fb8"/><rect x="80" y="151.0" width="12" height="29.0" fill="#2c7fb8"/><rect x="95" y="128.2" width="12" height="51.8" fill="#2c7fb8"/><rect x="110" y="101.0" width="12" height="79.0" fill="#2c7fb8"/><rect x="125" y="82.0" width="12" height="98.0" fill="#2c7fb8"/><rect x="140" y="48.2" width="12" height="131.8" fill="#2c7fb8"/><rect x="155" y="46.7" width="12" height="133.3" fill="#2c7fb8"/><rect x="170" y="32.3" width="12" height="147.7" fill="#2c7fb8"/><rect x="185" y="30.0" width="12" height="150.0" fill="#2c7fb8"/><rect x="200" y="43.4" width="12" height="136.6" fill="#2c7fb8"/><rect x="215" y="55.0" width="12" height="125.0" fill="#2c7fb8"/><rect x="230" y="69.4" width="12" height="110.6" fill="#2c7fb8"/><rect x="245" y="98.7" width="12" height="81.3" fill="#2c7fb8"/><rect x="260" y="114.6" width="12" height="65.4" fill="#2c7fb8"/><rect x="275" y="136.3" width="12" height="43.7" fill="#2c7fb8"/><rect x="290" y="142.1" width="12" height="37.9" fill="#2c7fb8"/><rect x="305" y="155.8" width="12" height="24.2" fill="#2c7fb8"/><rect x="320" y="162.6" width="12" height="17.4" fill="#2c7fb8"/><rect x="335" y="170.7" width="12" height="9.3" fill="#2c7fb8"/><rect x="350" y="173.9" width="12" height="6.1" fill="#2c7fb8"/><rect x="365" y="175.5" width="12" height="4.5" fill="#2c7fb8"/><rect x="380" y="178.0" width="12" height="2.0" fill="#2c7fb8"/><rect x="395" y="179.0" width="12" height="1.0" fill="#2c7fb8"/><rect x="410" y="179.5" width="12" height="0.5" fill="#2c7fb8"/><rect x="425" y="179.5" width="12" height="0.5" fill="#2c7fb8"/><rect x="440" y="180.0" width="12" height="0.0" fill="#2c7fb8"/><rect x="455" y="179.7" width="12" height="0.3" fill="#2c7fb8"/><line x1="20" y1="180" x2="470" y2="180" stroke="black"/></svg>